<mxfile host="app.diagrams.net" modified="2022-05-02T02:59:43.842Z" agent="5.0 (Windows NT 10.0; Win64; x64) AppleWebKit/537.36 (KHTML, like Gecko) Chrome/100.0.4896.127 Safari/537.36" etag="nq5qdzdoiGkImQEK-cyR" version="17.5.0" type="github">
  <diagram id="D_wyHHUxT-MBhRSzcZ0j" name="Page-1">
    <mxGraphModel dx="1662" dy="754" grid="1" gridSize="10" guides="1" tooltips="1" connect="1" arrows="1" fold="1" page="1" pageScale="1" pageWidth="827" pageHeight="1169" math="0" shadow="0">
      <root>
        <mxCell id="0" />
        <mxCell id="1" parent="0" />
        <mxCell id="kUFzCa0j1c1IOz4zvusD-10" style="edgeStyle=orthogonalEdgeStyle;rounded=0;orthogonalLoop=1;jettySize=auto;html=1;exitX=1;exitY=0.5;exitDx=0;exitDy=0;entryX=0;entryY=0.5;entryDx=0;entryDy=0;" edge="1" parent="1" source="kUFzCa0j1c1IOz4zvusD-1" target="kUFzCa0j1c1IOz4zvusD-2">
          <mxGeometry relative="1" as="geometry" />
        </mxCell>
        <mxCell id="kUFzCa0j1c1IOz4zvusD-1" value="" style="ellipse;whiteSpace=wrap;html=1;aspect=fixed;" vertex="1" parent="1">
          <mxGeometry x="140" y="440" width="80" height="80" as="geometry" />
        </mxCell>
        <mxCell id="kUFzCa0j1c1IOz4zvusD-11" style="edgeStyle=orthogonalEdgeStyle;rounded=0;orthogonalLoop=1;jettySize=auto;html=1;exitX=1;exitY=0.5;exitDx=0;exitDy=0;" edge="1" parent="1" source="kUFzCa0j1c1IOz4zvusD-2" target="kUFzCa0j1c1IOz4zvusD-3">
          <mxGeometry relative="1" as="geometry" />
        </mxCell>
        <mxCell id="kUFzCa0j1c1IOz4zvusD-2" value="" style="ellipse;whiteSpace=wrap;html=1;aspect=fixed;" vertex="1" parent="1">
          <mxGeometry x="310" y="440" width="80" height="80" as="geometry" />
        </mxCell>
        <mxCell id="kUFzCa0j1c1IOz4zvusD-12" style="edgeStyle=orthogonalEdgeStyle;rounded=0;orthogonalLoop=1;jettySize=auto;html=1;exitX=1;exitY=0.5;exitDx=0;exitDy=0;entryX=0;entryY=0.5;entryDx=0;entryDy=0;" edge="1" parent="1" source="kUFzCa0j1c1IOz4zvusD-3" target="kUFzCa0j1c1IOz4zvusD-4">
          <mxGeometry relative="1" as="geometry" />
        </mxCell>
        <mxCell id="kUFzCa0j1c1IOz4zvusD-3" value="" style="ellipse;whiteSpace=wrap;html=1;aspect=fixed;" vertex="1" parent="1">
          <mxGeometry x="480" y="440" width="80" height="80" as="geometry" />
        </mxCell>
        <mxCell id="kUFzCa0j1c1IOz4zvusD-13" style="edgeStyle=orthogonalEdgeStyle;rounded=0;orthogonalLoop=1;jettySize=auto;html=1;exitX=0.5;exitY=1;exitDx=0;exitDy=0;entryX=0.5;entryY=0;entryDx=0;entryDy=0;" edge="1" parent="1" source="kUFzCa0j1c1IOz4zvusD-4" target="kUFzCa0j1c1IOz4zvusD-8">
          <mxGeometry relative="1" as="geometry" />
        </mxCell>
        <mxCell id="kUFzCa0j1c1IOz4zvusD-4" value="" style="ellipse;whiteSpace=wrap;html=1;aspect=fixed;" vertex="1" parent="1">
          <mxGeometry x="650" y="440" width="80" height="80" as="geometry" />
        </mxCell>
        <mxCell id="kUFzCa0j1c1IOz4zvusD-5" value="" style="ellipse;whiteSpace=wrap;html=1;aspect=fixed;" vertex="1" parent="1">
          <mxGeometry x="140" y="630" width="80" height="80" as="geometry" />
        </mxCell>
        <mxCell id="kUFzCa0j1c1IOz4zvusD-16" style="edgeStyle=orthogonalEdgeStyle;rounded=0;orthogonalLoop=1;jettySize=auto;html=1;exitX=0;exitY=0.5;exitDx=0;exitDy=0;entryX=1;entryY=0.5;entryDx=0;entryDy=0;" edge="1" parent="1" source="kUFzCa0j1c1IOz4zvusD-6" target="kUFzCa0j1c1IOz4zvusD-5">
          <mxGeometry relative="1" as="geometry" />
        </mxCell>
        <mxCell id="kUFzCa0j1c1IOz4zvusD-6" value="" style="ellipse;whiteSpace=wrap;html=1;aspect=fixed;" vertex="1" parent="1">
          <mxGeometry x="310" y="630" width="80" height="80" as="geometry" />
        </mxCell>
        <mxCell id="kUFzCa0j1c1IOz4zvusD-15" style="edgeStyle=orthogonalEdgeStyle;rounded=0;orthogonalLoop=1;jettySize=auto;html=1;exitX=0;exitY=0.5;exitDx=0;exitDy=0;entryX=1;entryY=0.5;entryDx=0;entryDy=0;" edge="1" parent="1" source="kUFzCa0j1c1IOz4zvusD-7" target="kUFzCa0j1c1IOz4zvusD-6">
          <mxGeometry relative="1" as="geometry" />
        </mxCell>
        <mxCell id="kUFzCa0j1c1IOz4zvusD-7" value="" style="ellipse;whiteSpace=wrap;html=1;aspect=fixed;" vertex="1" parent="1">
          <mxGeometry x="480" y="630" width="80" height="80" as="geometry" />
        </mxCell>
        <mxCell id="kUFzCa0j1c1IOz4zvusD-14" style="edgeStyle=orthogonalEdgeStyle;rounded=0;orthogonalLoop=1;jettySize=auto;html=1;exitX=0;exitY=0.5;exitDx=0;exitDy=0;entryX=1;entryY=0.5;entryDx=0;entryDy=0;" edge="1" parent="1" source="kUFzCa0j1c1IOz4zvusD-8" target="kUFzCa0j1c1IOz4zvusD-7">
          <mxGeometry relative="1" as="geometry" />
        </mxCell>
        <mxCell id="kUFzCa0j1c1IOz4zvusD-8" value="" style="ellipse;whiteSpace=wrap;html=1;aspect=fixed;" vertex="1" parent="1">
          <mxGeometry x="650" y="630" width="80" height="80" as="geometry" />
        </mxCell>
      </root>
    </mxGraphModel>
  </diagram>
</mxfile>
